Coordinates
version=1
nRows=16
nColumns=63
inDegrees=yes

Units are S.I. units (second, meters, Newtons, ...)
If the header above contains a line with 'inDegrees', this indicates whether rotational values are in degrees (yes) or radians (no).

endheader
time	pelvis_tilt	pelvis_list	pelvis_rotation	pelvis_tx	pelvis_ty	pelvis_tz	hip_flexion_r	hip_adduction_r	hip_rotation_r	knee_angle_r	knee_angle_r_beta	ankle_angle_r	subtalar_angle_r	mtp_angle_r	hip_flexion_l	hip_adduction_l	hip_rotation_l	knee_angle_l	knee_angle_l_beta	ankle_angle_l	subtalar_angle_l	mtp_angle_l	L5_S1_Flex_Ext	L5_S1_Lat_Bending	L5_S1_axial_rotation	L4_L5_Flex_Ext	L4_L5_Lat_Bending	L4_L5_axial_rotation	L3_L4_Flex_Ext	L3_L4_Lat_Bending	L3_L4_axial_rotation	L2_L3_Flex_Ext	L2_L3_Lat_Bending	L2_L3_axial_rotation	L1_L2_Flex_Ext	L1_L2_Lat_Bending	L1_L2_axial_rotation	L1_T12_Flex_Ext	L1_T12_Lat_Bending	L1_T12_axial_rotation	Abs_r3	Abs_r2	Abs_r1	Abs_t1	Abs_t2	neck_flexion	neck_bending	neck_rotation	arm_flex_r	arm_add_r	arm_rot_r	elbow_flex_r	pro_sup_r	wrist_flex_r	wrist_dev_r	arm_flex_l	arm_add_l	arm_rot_l	elbow_flex_l	pro_sup_l	wrist_flex_l	wrist_dev_l
0.000000	2.868252	-2.753054	99.280309	0.075496	0.909608	0.567897	3.685587	4.573991	-10.842746	11.187283	0.195255	39.146810	15.049598	0.000000	1.368627	-3.493444	3.427714	4.920180	0.085873	37.840061	-5.990056	0.000000	0.359807	0.638459	0.144855	0.668197	0.849150	0.153909	0.591126	1.552348	0.153909	0.411223	1.552348	0.126748	0.334116	1.301945	0.117695	0.205593	0.988972	0.108641	2.570062	7.222371	0.805641	0.000000	0.000000	27.377365	1.291486	6.930301	25.936003	-8.136778	84.427092	40.135880	37.538200	1.548774	0.290973	26.029799	-5.854861	77.330437	34.331427	88.961984	-2.255866	-1.081986
0.016949	2.606294	-2.912699	100.179542	0.074636	0.908472	0.569870	4.220900	4.157453	-11.244191	12.138616	0.211859	39.610648	14.748896	0.000000	2.634546	-3.612862	-1.562184	7.320845	0.127773	40.001393	0.510933	0.000000	0.357173	0.607192	-0.108037	0.663305	0.807566	-0.114790	0.586799	1.476328	-0.114790	0.408213	1.476328	-0.094533	0.331671	1.238187	-0.087780	0.204088	0.940541	-0.081028	2.551249	6.868682	-0.600871	0.000000	0.000000	27.433298	1.857261	8.216720	25.917813	-8.148039	84.147153	40.865941	32.617766	0.916571	1.308966	25.646954	-6.480815	74.793264	36.007592	88.949730	-0.114529	1.500214
0.033898	2.407149	-3.021462	100.859119	0.073983	0.907577	0.571348	4.633077	3.842425	-11.539137	12.914933	0.225408	39.951978	14.448271	0.000000	3.612411	-3.725113	-5.627024	9.236981	0.161216	41.719735	5.766799	0.000000	0.353709	0.584653	-0.307657	0.656873	0.777588	-0.326885	0.581109	1.421525	-0.326885	0.404254	1.421525	-0.269200	0.328454	1.192224	-0.249971	0.202109	0.905627	-0.230743	2.526508	6.613708	-1.711095	0.000000	0.000000	27.465399	2.308858	9.294178	25.891661	-8.180843	83.845326	41.500502	28.668233	0.363148	2.108763	25.240868	-6.986158	72.509325	37.424639	88.936228	1.707892	3.760685
0.050847	2.265258	-3.084483	101.340193	0.073516	0.906903	0.572381	4.933821	3.619459	-11.738320	13.530954	0.236160	40.183542	14.150475	0.000000	4.329381	-3.830522	-8.847383	10.712005	0.186960	43.036155	9.887845	0.000000	0.349512	0.570045	-0.458774	0.649079	0.758159	-0.487448	0.574214	1.386007	-0.487448	0.399457	1.386007	-0.401427	0.324557	1.162435	-0.372754	0.199711	0.882999	-0.344081	2.496530	6.448460	-2.551564	0.000000	0.000000	27.476101	2.655987	10.179549	25.858279	-8.233128	83.529112	42.045739	25.599374	-0.116702	2.713963	24.821661	-7.380176	70.481048	38.598687	88.922030	3.229481	5.710492
0.067797	2.175064	-3.106903	101.643917	0.073215	0.906429	0.573018	5.134835	3.479105	-11.852481	14.001399	0.244371	40.318084	13.858263	0.000000	4.812610	-3.929415	-11.303841	11.789334	0.205763	43.991717	12.984377	0.000000	0.344679	0.562574	-0.566161	0.640103	0.748223	-0.601546	0.566273	1.367842	-0.601546	0.393933	1.367842	-0.495391	0.320069	1.147200	-0.460006	0.196949	0.871427	-0.424621	2.462006	6.363946	-3.148816	0.000000	0.000000	27.467836	2.908359	10.889706	25.818403	-8.302830	83.206013	42.507825	23.320958	-0.528187	3.148168	24.399455	-7.672155	68.710865	39.545858	88.907689	4.468317	7.360698
0.084746	2.131008	-3.093865	101.791445	0.073057	0.906133	0.573311	5.247820	3.411915	-11.892357	14.340985	0.250297	40.368347	13.574389	0.000000	5.089256	-4.022115	-13.076976	12.512385	0.218382	44.627488	15.166699	0.000000	0.339305	0.561445	-0.634588	0.630124	0.746721	-0.674249	0.557445	1.365097	-0.674249	0.387792	1.365097	-0.555264	0.315079	1.144898	-0.515602	0.193879	0.869678	-0.475941	2.423624	6.351175	-3.529386	0.000000	0.000000	27.443036	3.075683	11.441522	25.772766	-8.387888	82.883530	42.892936	21.742757	-0.876514	3.434977	23.984372	-7.871381	67.201205	40.282271	88.893756	5.442484	8.722366
0.101695	2.127532	-3.050511	101.803930	0.073023	0.905995	0.573310	5.284480	3.408441	-11.868688	14.564434	0.254197	40.347074	13.301607	0.000000	5.186476	-4.108949	-14.247369	12.924576	0.225576	44.984533	16.545114	0.000000	0.333489	0.565863	-0.668826	0.619322	0.752598	-0.710627	0.547888	1.375840	-0.710627	0.381144	1.375840	-0.585223	0.309678	1.153908	-0.543421	0.190555	0.876522	-0.501619	2.382076	6.401157	-3.719808	0.000000	0.000000	27.404132	3.167670	11.851871	25.722103	-8.486238	82.569164	43.207247	20.774542	-1.166890	3.597992	23.586533	-7.987140	65.954498	40.824045	88.880785	6.170063	9.806561
0.118644	2.159078	-2.981980	101.702525	0.073090	0.905994	0.573065	5.256516	3.459234	-11.792212	14.686464	0.256327	40.267009	13.042669	0.000000	5.131424	-4.190240	-14.895597	13.069324	0.228103	45.103920	17.229929	0.000000	0.327325	0.575034	-0.673646	0.607876	0.764795	-0.715749	0.537763	1.398138	-0.715749	0.374100	1.398138	-0.589441	0.303954	1.172610	-0.547338	0.187034	0.890728	-0.505235	2.338051	6.504901	-3.746620	0.000000	0.000000	27.353558	3.194030	12.137625	25.667148	-8.595819	82.270417	43.456932	20.326083	-1.404522	3.660814	23.216059	-8.028718	64.973176	41.187302	88.869328	6.669136	10.624345
0.135593	2.220089	-2.893416	101.508385	0.073239	0.906108	0.572626	5.175632	3.554844	-11.673667	14.721795	0.256944	40.140896	12.800331	0.000000	4.951258	-4.266314	-15.102239	12.990045	0.226719	45.026715	17.331446	0.000000	0.320912	0.588163	-0.653821	0.595965	0.782257	-0.694685	0.527226	1.430059	-0.694685	0.366770	1.430059	-0.572093	0.297999	1.199382	-0.531229	0.183369	0.911064	-0.490366	2.292241	6.653416	-3.636355	0.000000	0.000000	27.293744	3.164472	12.315658	25.608634	-8.714567	81.994790	43.648167	20.307151	-1.594617	3.647041	22.883072	-8.005402	64.259668	41.388161	88.859938	6.957786	11.186783
0.152542	2.305006	-2.789960	101.242663	0.073446	0.906317	0.572043	5.053529	3.685824	-11.523793	14.685146	0.256304	39.981476	12.577346	0.000000	4.673134	-4.337495	-14.947875	12.730157	0.222183	44.793982	16.959971	0.000000	0.314345	0.604455	-0.614120	0.583770	0.803925	-0.652502	0.516437	1.469671	-0.652502	0.359265	1.469671	-0.537355	0.291901	1.232604	-0.498972	0.179617	0.936300	-0.460590	2.245334	6.837712	-3.415550	0.000000	0.000000	27.227124	3.088708	12.402842	25.547296	-8.840421	81.749785	43.787125	20.627518	-1.742383	3.580275	22.597693	-7.926476	63.816404	41.442743	88.853166	7.054094	11.504938
0.169492	2.408271	-2.676753	100.926512	0.073692	0.906599	0.571366	4.901910	3.842724	-11.353327	14.591236	0.254665	39.801495	12.376468	0.000000	4.324209	-4.404109	-14.513083	12.333078	0.215253	44.446790	16.225807	0.000000	0.307721	0.623115	-0.559315	0.571469	0.828742	-0.594272	0.505555	1.515041	-0.594272	0.351695	1.515041	-0.489400	0.285750	1.270655	-0.454443	0.175832	0.965205	-0.419486	2.198022	7.048798	-3.110740	0.000000	0.000000	27.156129	2.976447	12.416053	25.483867	-8.971317	81.542902	43.879983	21.196954	-1.853026	3.484117	22.370044	-7.801227	63.645814	41.367166	88.849566	6.976142	11.589874
0.186441	2.515266	-2.567497	100.606512	0.073966	0.906907	0.570675	4.739967	4.016748	-11.076871	14.455646	0.252299	39.605628	12.071646	0.000000	3.958222	-4.474919	-13.949028	11.879109	0.207330	44.062849	15.366273	0.000000	0.302088	0.641000	-0.495457	0.561007	0.852529	-0.526423	0.496300	1.558526	-0.526423	0.345256	1.558526	-0.433525	0.280519	1.307126	-0.402559	0.172613	0.992908	-0.371593	2.157782	7.251115	-2.755584	0.000000	0.000000	27.097558	2.828767	12.309666	25.391702	-9.106152	81.267637	43.959992	21.733908	-1.991182	3.469732	22.189319	-7.669108	63.617872	41.236424	88.843410	6.721351	11.542843
0.203390	2.618553	-2.457722	100.252697	0.074160	0.907249	0.570005	4.589983	4.160530	-10.934664	14.348003	0.250420	39.465591	11.974171	0.000000	3.530013	-4.479741	-12.923738	11.287228	0.196999	43.569090	13.902949	0.000000	0.296209	0.660746	-0.425674	0.550090	0.878793	-0.452278	0.486642	1.606539	-0.452278	0.338537	1.606539	-0.372465	0.275060	1.347394	-0.345860	0.169254	1.023496	-0.319255	2.115791	7.474496	-2.367470	0.000000	0.000000	27.025473	2.658110	12.246899	25.338690	-9.253902	81.252151	44.003047	22.138942	-2.079503	3.483567	22.143939	-7.478052	64.093580	40.931540	88.848108	6.284736	11.092256
0.220339	2.744603	-2.366352	99.989347	0.074342	0.907546	0.569582	4.476514	4.319564	-10.868225	14.232492	0.248404	39.340983	11.901461	0.000000	3.279023	-4.577436	-12.722789	11.003317	0.192044	43.399015	13.500704	0.000000	0.289947	0.681310	-0.370974	0.538460	0.906142	-0.394160	0.476353	1.656536	-0.394160	0.331380	1.656536	-0.324602	0.269244	1.389327	-0.301416	0.165675	1.055349	-0.278230	2.071059	7.707110	-2.063245	0.000000	0.000000	26.961203	2.540766	12.235971	25.308404	-9.371879	81.348616	43.974895	22.607504	-2.137511	3.534521	22.246777	-7.288305	64.964928	40.545558	88.862175	5.748713	10.385706
0.237288	2.878686	-2.271978	99.755157	0.074439	0.907875	0.569219	4.338030	4.498498	-10.702224	14.046286	0.245154	39.197100	11.744851	0.000000	3.023327	-4.672443	-12.440179	10.692913	0.186627	43.233329	13.022011	0.000000	0.282963	0.703117	-0.319637	0.525491	0.935146	-0.339614	0.464880	1.709559	-0.339614	0.323398	1.709559	-0.279682	0.262759	1.433797	-0.259705	0.161685	1.089129	-0.239728	2.021176	7.953803	-1.777726	0.000000	0.000000	26.889890	2.425812	12.197196	25.249148	-9.488206	81.450013	43.860379	23.697654	-2.115556	3.568299	22.450104	-7.060396	66.190248	40.047822	88.884802	5.045028	9.395249
0.254237	2.986173	-2.196016	99.564319	0.074516	0.908153	0.569009	4.243633	4.626551	-10.653874	13.917037	0.242898	39.146743	11.750975	0.000000	2.821586	-4.744845	-12.163203	10.433293	0.182095	43.106093	12.577571	0.000000	0.275970	0.720911	-0.276324	0.512504	0.958812	-0.293595	0.453392	1.752823	-0.293595	0.315406	1.752823	-0.241784	0.256266	1.470082	-0.224513	0.157689	1.116691	-0.207243	1.971228	8.155090	-1.536833	0.000000	0.000000	26.817947	2.336874	12.185892	25.193744	-9.598080	81.634858	43.792611	24.113906	-2.110679	3.712650	22.739362	-6.862432	67.595471	39.562515	88.913145	4.421990	8.395232
